<?xml version="1.0" standalone="no"?>
<!DOCTYPE svg PUBLIC "-//W3C//DTD SVG 20010904//EN"
 "http://www.w3.org/TR/2001/REC-SVG-20010904/DTD/svg10.dtd">
<svg version="1.0" xmlns="http://www.w3.org/2000/svg"
 width="512.000000pt" height="512.000000pt" viewBox="0 0 512.000000 512.000000"
 preserveAspectRatio="xMidYMid meet">
<metadata>
Created by potrace 1.14, written by Peter Selinger 2001-2017
</metadata>
<g transform="translate(0.000000,512.000000) scale(0.100000,-0.100000)"
fill="#000000" stroke="none">
<path d="M4666 3518 c3 -4 9 -8 15 -8 5 0 9 4 9 8 0 5 -7 9 -15 9 -8 0 -12 -4
-9 -9z"/>
<path d="M4696 3514 c-4 -12 -13 -14 -31 -10 -18 5 -27 2 -31 -9 -4 -8 -10
-15 -16 -15 -5 0 -7 4 -3 9 3 5 0 13 -6 17 -7 4 -9 3 -6 -3 4 -6 0 -16 -8 -23
-8 -7 -15 -10 -15 -7 0 3 -13 1 -30 -4 -16 -6 -27 -15 -24 -20 3 -5 3 -9 -1
-9 -3 0 -10 10 -15 23 -6 15 -9 17 -9 6 -1 -13 -10 -17 -40 -15 -29 1 -37 -2
-33 -13 4 -10 1 -12 -9 -5 -22 13 -49 15 -49 3 0 -6 -9 -9 -20 -6 -11 3 -18 2
-15 -3 3 -4 -2 -10 -10 -14 -10 -3 -15 1 -16 12 0 14 -2 14 -9 -3 -6 -13 -9
-15 -9 -5 -1 9 -4 11 -9 5 -11 -16 -45 -19 -37 -3 3 7 0 5 -8 -4 -10 -13 -16
-15 -25 -6 -9 9 -12 9 -12 1 0 -6 -9 -9 -20 -6 -11 3 -17 10 -13 16 3 6 1 7
-6 3 -6 -4 -9 -11 -6 -16 6 -10 -16 -26 -35 -25 -8 0 -19 -4 -23 -10 -5 -6 -7
-3 -4 7 3 9 -1 19 -9 22 -10 4 -12 2 -8 -6 5 -8 2 -9 -11 -4 -14 5 -15 4 -7
-7 8 -10 6 -13 -9 -13 -10 0 -19 4 -19 8 0 4 -5 8 -11 8 -5 0 -7 -4 -4 -10 3
-5 -1 -10 -10 -10 -10 0 -13 5 -9 13 5 8 2 8 -9 -2 -9 -7 -17 -10 -17 -5 0 5
-5 2 -10 -6 -5 -8 -10 -10 -10 -4 0 7 -7 15 -16 18 -8 3 -12 2 -9 -3 3 -6 -8
-9 -24 -9 -17 1 -28 5 -25 10 3 4 3 8 -1 8 -3 0 -10 -10 -15 -22 -7 -18 -9
-19 -9 -5 -1 9 -6 17 -12 17 -5 0 -8 -4 -5 -8 8 -13 -42 -6 -60 9 -10 8 -15 9
-11 2 4 -6 3 -14 -3 -18 -5 -3 -10 0 -10 7 0 9 -3 9 -10 -2 -5 -8 -10 -10 -10
-4 0 6 -6 11 -14 11 -9 0 -12 -6 -8 -16 5 -13 3 -14 -9 -5 -22 17 -49 13 -49
-8 0 -10 -4 -18 -9 -18 -6 0 -8 10 -6 22 4 16 2 19 -7 10 -13 -13 -32 -16 -24
-4 2 4 -5 8 -17 9 -12 0 -16 -1 -9 -4 6 -3 12 -12 12 -21 0 -14 -2 -14 -9 -3
-5 7 -14 11 -20 7 -6 -4 -9 -2 -6 6 4 10 -3 14 -20 14 -14 0 -25 -6 -25 -13 0
-14 -1 -14 -38 -18 -19 -2 -21 1 -16 19 6 21 6 21 -10 -1 -18 -25 -60 -28 -51
-4 5 12 2 11 -13 -2 -10 -9 -23 -17 -28 -17 -5 0 -2 5 6 11 11 8 7 9 -17 4
-24 -5 -34 -2 -42 12 -6 10 -11 13 -11 6 0 -20 -98 -36 -113 -18 -5 6 -7 -2
-4 -18 3 -22 2 -25 -10 -16 -11 9 -12 8 -7 -5 3 -9 11 -16 16 -16 6 0 6 -6 -1
-14 -10 -11 -8 -17 6 -25 14 -8 15 -11 3 -11 -10 -1 -9 -4 4 -9 11 -4 20 -17
21 -29 1 -17 -1 -19 -12 -10 -11 8 -12 7 -7 -6 3 -9 10 -16 15 -16 5 0 9 -7 9
-16 0 -9 -5 -13 -12 -9 -7 4 -6 1 2 -7 9 -7 14 -21 12 -32 -3 -13 0 -16 10
-10 11 6 11 5 0 -8 -10 -13 -10 -17 4 -22 13 -5 14 -9 4 -21 -10 -12 -9 -15 4
-15 9 0 15 -3 14 -7 -1 -5 1 -18 6 -30 6 -19 11 -21 26 -13 23 12 33 13 26 2
-2 -4 4 -13 14 -19 14 -10 21 -8 35 7 14 15 21 17 35 7 10 -6 16 -15 14 -19
-3 -4 0 -8 5 -8 6 0 11 6 11 13 0 8 3 8 9 -2 10 -15 41 -25 40 -13 -3 21 3 23
16 6 14 -18 14 -18 10 4 -2 12 0 20 6 17 5 -4 9 -14 9 -23 0 -13 2 -13 14 3
13 18 16 19 33 4 17 -16 48 -15 39 0 -3 4 1 8 9 8 8 0 12 -4 9 -9 -3 -4 -1 -8
5 -8 5 0 15 8 21 18 10 15 11 14 6 -6 -4 -19 -2 -21 10 -11 7 6 20 9 28 6 7
-3 18 -1 24 5 6 6 12 6 17 -3 6 -8 4 -10 -5 -4 -9 6 -11 4 -5 -5 6 -10 13 -7
27 11 11 13 17 18 13 12 -3 -7 -1 -13 4 -13 6 0 11 5 11 10 0 6 4 10 10 10 5
0 7 -8 3 -17 -5 -15 -3 -16 8 -5 7 6 19 12 27 12 12 0 12 -3 1 -17 -13 -17
-13 -17 5 -3 11 8 21 14 23 12 3 -2 8 0 11 4 4 4 1 4 -5 0 -7 -4 -13 -2 -13 4
0 6 10 8 25 4 21 -5 24 -3 19 12 -5 18 -5 18 6 1 6 -9 16 -15 21 -12 5 4 6 11
3 17 -5 7 -2 8 7 3 22 -14 63 -11 77 5 8 8 11 10 8 3 -4 -7 1 -11 14 -10 11 1
20 6 20 12 0 5 4 3 10 -5 5 -8 12 -11 16 -7 4 3 1 15 -7 24 -13 16 -12 17 3 4
11 -8 25 -10 35 -5 25 11 53 13 53 4 0 -14 -50 -41 -62 -34 -6 4 -8 3 -4 -4 5
-9 -20 -29 -86 -67 -9 -5 -73 -42 -140 -82 -231 -134 -472 -246 -693 -321
-263 -89 -393 -120 -710 -167 -71 -11 -508 -14 -575 -5 -36 5 -81 12 -100 14
-348 47 -667 191 -865 393 -31 32 -87 99 -122 150 -66 93 -104 123 -155 123
-114 0 -319 -145 -433 -304 -141 -198 -118 -399 72 -622 192 -225 528 -390
930 -458 206 -35 290 -41 563 -41 250 0 382 8 522 30 24 4 55 8 71 11 54 8
138 24 202 38 157 34 416 121 585 198 386 175 855 503 1163 813 59 59 110 105
114 102 3 -4 1 -7 -6 -7 -7 0 -10 -4 -7 -9 4 -5 0 -12 -6 -14 -10 -4 -10 -6 0
-6 6 -1 12 -5 12 -10 0 -5 -10 -7 -22 -4 -22 5 -22 5 -4 -9 14 -11 16 -17 6
-23 -9 -6 -9 -9 0 -15 8 -5 7 -9 -5 -13 -9 -4 -13 -3 -10 2 3 5 1 12 -4 15 -5
3 -7 -10 -5 -29 2 -23 -1 -33 -7 -29 -7 4 -7 -1 0 -14 8 -15 8 -23 -1 -28 -7
-5 -8 -3 -3 6 5 8 4 11 -2 7 -6 -4 -10 -20 -9 -36 1 -17 -2 -27 -9 -25 -6 3
-11 -6 -12 -18 -2 -18 0 -20 7 -8 6 9 10 10 10 3 0 -6 -5 -15 -11 -18 -5 -4
-8 -12 -6 -18 2 -7 -3 -18 -12 -25 -14 -12 -14 -13 4 -8 19 6 19 6 1 -9 -10
-8 -23 -12 -29 -8 -6 3 -7 1 -3 -5 4 -6 14 -9 24 -6 11 4 9 -1 -7 -14 -16 -13
-20 -21 -11 -24 10 -3 10 -8 -1 -26 -11 -17 -11 -28 -2 -54 10 -28 10 -30 -1
-16 -15 20 -28 14 -19 -10 5 -11 3 -13 -7 -7 -9 6 -11 4 -5 -6 12 -19 14 -49
3 -43 -5 4 -7 13 -3 22 3 9 3 13 -2 9 -13 -13 -12 -68 1 -60 6 4 5 -1 -3 -10
-7 -9 -10 -17 -5 -17 4 0 -1 -7 -12 -16 -16 -13 -16 -15 -1 -10 9 3 17 1 17
-4 0 -6 -8 -10 -17 -10 -16 -1 -16 -2 2 -17 16 -13 17 -15 3 -10 -10 4 -18 2
-18 -3 0 -6 6 -10 13 -10 6 -1 1 -8 -13 -16 -14 -8 -17 -13 -7 -10 16 5 17 4
3 -15 -10 -16 -12 -28 -5 -46 11 -30 11 -36 1 -29 -5 3 -9 -1 -9 -9 0 -8 5
-15 10 -15 5 0 4 -7 -3 -15 -10 -12 -10 -15 0 -15 10 0 10 -3 0 -15 -10 -12
-10 -15 0 -15 10 0 10 -3 1 -14 -10 -12 -8 -13 10 -9 15 4 20 3 15 -5 -6 -11
5 -16 26 -13 4 0 4 -7 1 -17 -6 -15 -5 -15 10 -3 14 11 18 11 23 -2 3 -9 12
-13 19 -11 8 3 20 -6 29 -23 8 -15 15 -23 16 -17 0 7 7 15 16 18 8 3 13 2 11
-2 -3 -4 2 -14 11 -22 14 -13 15 -12 9 3 -3 9 -2 17 3 17 6 0 10 -5 10 -11 0
-8 4 -8 14 0 12 10 13 8 8 -11 -5 -20 -3 -21 10 -11 12 10 19 9 36 -8 14 -13
22 -15 22 -7 1 7 8 2 16 -12 8 -14 13 -17 10 -8 -3 10 0 20 6 24 6 4 8 3 5 -3
-7 -11 33 -27 42 -18 2 3 -1 5 -8 5 -7 0 -9 5 -5 12 5 7 3 8 -6 3 -9 -6 -11
-4 -6 4 5 7 15 10 24 6 12 -5 12 -1 -3 15 -11 12 -15 21 -10 20 21 -5 29 1 15
10 -9 6 -11 10 -3 10 7 0 10 7 6 16 -3 9 0 20 8 25 12 7 12 9 0 9 -11 0 -10 3
3 13 16 12 16 14 2 26 -9 8 -16 19 -16 25 0 6 5 4 10 -4 8 -13 10 -13 10 2 0
9 7 24 16 32 8 9 11 16 5 16 -5 0 -13 -4 -16 -10 -3 -5 -12 -10 -18 -10 -8 0
-9 2 -1 8 6 4 11 14 12 22 1 23 7 44 15 58 5 6 5 12 1 12 -4 0 1 10 12 22 10
12 14 18 7 15 -13 -8 -12 48 2 60 4 4 5 2 0 -6 -5 -10 -4 -12 4 -7 6 4 9 12 5
17 -3 5 0 17 7 25 10 12 9 13 -3 9 -9 -4 -15 0 -15 10 0 10 6 14 15 10 12 -4
12 -3 3 9 -10 12 -8 14 11 9 17 -4 20 -2 9 5 -17 12 -23 40 -10 48 14 8 11 36
-3 29 -7 -4 -5 0 4 8 14 11 15 16 5 26 -9 10 -9 11 3 6 11 -4 16 2 18 21 1 15
7 33 13 40 12 15 0 19 -17 7 -5 -5 -2 -1 8 8 11 11 14 19 7 26 -7 7 -7 13 2
18 8 6 10 4 4 -5 -5 -9 -4 -11 3 -6 9 5 9 13 1 28 -7 13 -7 18 -1 14 14 -9 27
14 23 42 -1 13 3 22 11 22 10 0 9 3 -2 10 -12 7 -12 12 -2 22 15 15 16 32 0
22 -7 -4 -8 -3 -4 4 4 7 14 12 22 12 8 0 14 4 14 10 0 5 -8 7 -17 4 -17 -5
-17 -5 0 6 19 12 24 35 5 25 -7 -4 -4 1 6 9 11 9 16 16 10 16 -5 0 -2 5 6 10
13 9 13 11 0 20 -12 7 -12 10 -1 10 8 0 11 6 7 16 -4 11 -2 15 7 11 8 -3 14 1
14 9 0 7 -3 11 -7 9 -4 -2 -7 3 -7 11 0 9 6 13 14 10 8 -3 11 -1 8 4 -3 6 -1
10 6 10 7 0 4 7 -7 15 -10 9 -13 14 -5 13 7 -2 16 3 19 11 3 9 0 11 -8 6 -9
-6 -11 -4 -6 4 5 7 14 10 22 7 8 -3 14 -1 14 3 0 5 -6 12 -12 14 -10 4 -10 6
0 6 6 1 12 12 12 25 0 13 8 27 18 31 16 6 16 7 -2 21 -18 13 -18 14 -2 14 10
0 14 4 10 12 -5 7 -2 9 8 5 17 -6 19 8 5 31 -5 7 -2 14 7 18 9 3 12 12 9 21
-4 10 -2 14 4 10 6 -4 16 0 23 8 11 13 10 14 -6 8 -17 -6 -17 -5 -6 10 8 9 10
22 6 29 -5 8 -1 8 11 -2 17 -14 18 -14 6 9 -8 15 -9 21 -2 17 15 -10 14 7 -1
23 -11 10 -10 11 5 6 10 -4 17 -2 17 4 0 10 -14 15 -33 12 -5 -1 -6 3 -2 9 3
6 12 7 18 4 7 -4 0 5 -15 20 -27 26 -33 39 -28 61 1 6 -4 5 -11 -2 -15 -15
-39 7 -42 37 -1 11 -6 19 -12 17 -5 -2 -18 5 -27 16 -23 26 -23 35 0 14 10
-10 23 -17 28 -17 4 0 -2 7 -14 16 -12 8 -20 19 -17 24 3 4 -4 6 -15 3 -15 -4
-20 0 -20 16 0 12 -4 19 -10 16 -5 -3 -10 -1 -10 5 0 6 -5 8 -10 5 -6 -4 -10
-3 -9 2 4 22 -2 35 -15 30 -11 -4 -13 -1 -9 11 6 15 5 16 -12 2 -16 -14 -17
-13 -11 8 8 25 1 30 -8 6z m-286 -80 c0 -8 -19 -13 -24 -6 -3 5 1 9 9 9 8 0
15 -2 15 -3z m-877 -89 c-3 -9 -8 -14 -10 -11 -3 3 -2 9 2 15 9 16 15 13 8 -4z
m157 11 c0 -2 -7 -7 -16 -10 -8 -3 -12 -2 -9 4 6 10 25 14 25 6z m-395 -16
c-3 -5 -12 -10 -18 -10 -7 0 -6 4 3 10 19 12 23 12 15 0z m49 -371 c-3 -5 -10
-7 -15 -3 -5 3 -7 10 -3 15 3 5 10 7 15 3 5 -3 7 -10 3 -15z m1036 -409 c0 -5
-2 -10 -4 -10 -3 0 -8 5 -11 10 -3 6 -1 10 4 10 6 0 11 -4 11 -10z m-136 -519
c3 -5 -1 -11 -9 -14 -9 -4 -12 -1 -8 9 6 16 10 17 17 5z"/>
<path d="M4555 3490 c3 -5 8 -10 11 -10 2 0 4 5 4 10 0 6 -5 10 -11 10 -5 0
-7 -4 -4 -10z"/>
<path d="M3410 3350 c0 -5 5 -10 11 -10 5 0 7 5 4 10 -3 6 -8 10 -11 10 -2 0
-4 -4 -4 -10z"/>
<path d="M3470 3348 c0 -4 4 -8 9 -8 6 0 12 4 15 8 3 5 -1 9 -9 9 -8 0 -15 -4
-15 -9z"/>
<path d="M3361 2957 c-13 -21 -12 -21 5 -5 10 10 16 20 13 22 -3 3 -11 -5 -18
-17z"/>
<path d="M3535 2950 c-3 -5 -1 -10 4 -10 6 0 11 5 11 10 0 6 -2 10 -4 10 -3 0
-8 -4 -11 -10z"/>
<path d="M3745 2940 c-3 -6 1 -7 9 -4 18 7 21 14 7 14 -6 0 -13 -4 -16 -10z"/>
<path d="M4627 1996 c-4 -10 -1 -13 8 -9 8 3 12 9 9 14 -7 12 -11 11 -17 -5z"/>
<path d="M4470 1750 c0 -5 5 -10 11 -10 5 0 7 5 4 10 -3 6 -8 10 -11 10 -2 0
-4 -4 -4 -10z"/>
</g>
</svg>
