<?xml version="1.0" standalone="no"?>
<!DOCTYPE svg PUBLIC "-//W3C//DTD SVG 20010904//EN"
 "http://www.w3.org/TR/2001/REC-SVG-20010904/DTD/svg10.dtd">
<svg version="1.0" xmlns="http://www.w3.org/2000/svg"
 width="512.000000pt" height="512.000000pt" viewBox="0 0 512.000000 512.000000"
 preserveAspectRatio="xMidYMid meet">
<metadata>
Created by potrace 1.14, written by Peter Selinger 2001-2017
</metadata>
<g transform="translate(0.000000,512.000000) scale(0.100000,-0.100000)"
fill="#000000" stroke="none">
<path d="M4560 3468 c-54 -22 -272 -65 -429 -83 -30 -4 -61 -8 -70 -10 -43 -8
-124 -16 -201 -20 -235 -12 -340 -16 -504 -20 -98 -2 -183 -8 -187 -12 -15
-15 62 -323 83 -334 69 -37 474 -46 638 -14 13 3 42 7 65 11 22 3 58 9 80 14
43 10 89 12 66 3 -7 -3 -45 -26 -85 -52 -103 -66 -89 -58 -271 -161 -163 -92
-422 -208 -615 -274 -102 -34 -339 -98 -410 -110 -19 -3 -48 -8 -65 -11 -89
-16 -148 -25 -215 -32 -101 -9 -438 -10 -525 0 -472 52 -838 238 -1036 525
-67 96 -78 108 -112 121 -39 15 -68 14 -124 -5 -154 -52 -354 -250 -408 -404
-22 -64 -20 -204 5 -259 11 -24 20 -47 20 -53 0 -5 22 -41 49 -81 181 -269
532 -457 991 -531 288 -46 662 -51 970 -11 19 3 55 7 80 10 212 28 502 110
738 210 403 170 916 528 1230 858 25 26 47 45 49 43 2 -2 -1 -16 -7 -31 -23
-59 -110 -386 -140 -523 -31 -145 -44 -289 -29 -329 10 -28 25 -35 195 -98
l143 -52 10 31 c5 17 12 56 15 86 4 30 11 80 16 110 5 30 12 71 15 90 13 78
17 99 36 189 11 51 22 102 24 113 2 11 7 28 10 38 3 10 8 28 10 41 31 158 210
687 237 697 31 13 -21 87 -201 284 -37 41 -49 48 -80 47 -20 0 -47 -5 -61 -11z"/>
</g>
</svg>
